<svg id="svg" version="1.1" xmlns="http://www.w3.org/2000/svg" xmlns:xlink="http://www.w3.org/1999/xlink" width="400" height="400" viewBox="0, 0, 400,400">
    <defs>
        <linearGradient id="grad1" x1="0%" y1="100%" x2="100%" y2="0%">
            <stop offset="15%" style="stop-color:rgb(55,84,236);stop-opacity:1" />
            <stop offset="100%" style="stop-color:rgb(202, 8, 11);stop-opacity:1" />
        </linearGradient>
    </defs>
    <rect width="400" height="400" fill="url(#grad1)">
    </rect>
    <g>
        <path d="M92.222 200.000 L 92.222 289.259 116.111 289.259 L 140.000 289.259 140.000 200.000 L 140.000 110.741 116.111 110.741 L 92.222 110.741 92.222 200.000 M178.889 200.000 L 178.889 289.259 216.944 289.252 C 256.581 289.244,260.000 289.134,268.983 287.577 C 303.423 281.604,321.397 261.462,318.912 231.625 C 317.439 213.940,306.574 200.043,290.587 195.395 C 287.985 194.639,287.985 194.120,290.586 192.844 C 306.472 185.053,315.092 160.173,308.816 140.230 C 304.617 126.885,292.523 117.790,273.583 113.735 C 260.766 110.990,256.053 110.751,214.722 110.745 L 178.889 110.741 178.889 200.000 M245.367 147.410 C 258.731 148.388,263.982 152.224,264.379 161.299 C 264.989 175.245,257.438 180.355,236.204 180.366 L 226.296 180.370 226.296 163.704 L 226.296 147.037 233.426 147.048 C 237.347 147.054,242.721 147.217,245.367 147.410 M251.211 215.574 C 266.408 216.724,272.646 221.903,272.628 233.354 C 272.605 247.770,264.547 252.416,238.796 252.859 L 226.296 253.074 226.296 234.129 L 226.296 215.185 236.204 215.187 C 241.653 215.188,248.406 215.362,251.211 215.574 " fill="#fff"></path>
    </g>
</svg>